<?xml version="1.0" encoding="utf-8"?>
<!-- Generator: Adobe Illustrator 25.3.0, SVG Export Plug-In . SVG Version: 6.00 Build 0)  -->
<svg version="1.1" xmlns="http://www.w3.org/2000/svg" xmlns:xlink="http://www.w3.org/1999/xlink" x="0px" y="0px"
	 viewBox="0 0 750 500" style="enable-background:new 0 0 750 500;" xml:space="preserve">
<style type="text/css">
	.st0{fill:url(#SVGID_1_);}
	.st1{fill:url(#SVGID_2_);}
	.st2{opacity:0.4;}
	.st3{fill:#a9d5ee;}
	.st4{fill:url(#SVGID_3_);}
	.st5{fill:url(#SVGID_4_);}
	.st6{fill:#000000;}
	.st7{fill:url(#SVGID_5_);}
	.st8{fill:url(#SVGID_6_);}
	.st9{fill:url(#SVGID_7_);}
	.st10{opacity:0.92;fill:none;stroke:#ffffff;stroke-width:0.892;stroke-miterlimit:10;stroke-dasharray:1.784;}
	.st11{fill:url(#SVGID_8_);}
	.st12{fill:url(#SVGID_9_);}
	.st13{fill:#ffec58;}
	.st14{fill:url(#SVGID_10_);}
	.st15{fill:url(#SVGID_11_);}
	.st16{fill:url(#SVGID_12_);}
	.st17{fill:url(#SVGID_13_);}
	.st18{fill:url(#SVGID_14_);}
	.st19{fill:url(#SVGID_15_);}
	.st20{fill:url(#SVGID_16_);}
	.st21{fill:url(#SVGID_17_);}
	.st22{fill:url(#SVGID_18_);}
	.st23{fill:url(#SVGID_19_);}
	.st24{fill:url(#SVGID_20_);}
	.st25{fill:url(#SVGID_21_);}
	.st26{fill:url(#SVGID_22_);}
	.st27{fill:url(#SVGID_23_);}
	.st28{fill:url(#SVGID_24_);}
	.st29{fill:url(#SVGID_25_);}
	.st30{fill:url(#SVGID_26_);}
	.st31{fill:url(#SVGID_27_);}
	.st32{fill:url(#SVGID_28_);}
	.st33{fill:url(#SVGID_29_);}
	.st34{fill:url(#SVGID_30_);}
	.st35{fill:url(#SVGID_31_);}
	.st36{fill:url(#SVGID_32_);}
	.st37{fill:url(#SVGID_33_);}
	.st38{fill:url(#SVGID_34_);}
	.st39{fill:url(#SVGID_35_);}
	.st40{fill:url(#SVGID_36_);}
	.st41{fill:url(#SVGID_37_);}
	.st42{fill:url(#SVGID_38_);}
	.st43{fill:url(#SVGID_39_);}
	.st44{fill:url(#SVGID_40_);}
	.st45{fill:url(#SVGID_41_);}
	.st46{fill:url(#SVGID_42_);}
	.st47{fill:url(#SVGID_43_);}
	.st48{fill:none;stroke:#FFFFFF;stroke-width:2;stroke-miterlimit:10;}
	.st49{fill:url(#SVGID_44_);}
	.st50{fill:url(#SVGID_45_);}
	.st51{fill:url(#SVGID_46_);}
	.st52{fill:#ffffff;}
</style>
<g id="BACKGROUND">
	<image style="overflow:visible;" width="751" height="500" xlink:href="A8218A36.png"  transform="matrix(1 0 0 1 -0.998 0)">
	</image>
</g>
<g id="OBJECTS">
	<g>
		<g>
			
				<image style="overflow:visible;opacity:0.16;" width="66" height="67" xlink:href="A8218A3A.png"  transform="matrix(1 0 0 1 474.002 385)">
			</image>
			<g>
				<g>
					<linearGradient id="SVGID_1_" gradientUnits="userSpaceOnUse" x1="486.9376" y1="436.3391" x2="524.6078" y2="398.6689">
						<stop  offset="0" style="stop-color:#A01EB8"/>
						<stop  offset="0.2331" style="stop-color:#9C1EB8"/>
						<stop  offset="0.4762" style="stop-color:#8F1EB9"/>
						<stop  offset="0.724" style="stop-color:#7A1FBB"/>
						<stop  offset="0.9736" style="stop-color:#5D20BD"/>
						<stop  offset="0.999" style="stop-color:#5A20BD"/>
					</linearGradient>
					<path class="st0" d="M524.5,422.9l7.8,0.1l0.1-10.5l-7.8-0.1c-0.4-1.5-1-3-1.7-4.3l5.6-5.5l-7.4-7.5l-5.6,5.5
						c-1.3-0.8-2.8-1.4-4.3-1.8l0.1-7.8l-10.5-0.1l-0.1,7.8c-1.5,0.4-3,1-4.3,1.7l-5.5-5.6l-7.5,7.4l5.5,5.6
						c-0.8,1.3-1.4,2.8-1.8,4.3l-7.8-0.1l-0.1,10.5l7.8,0.1c0.4,1.5,1,3,1.7,4.3l-5.6,5.5l7.4,7.5l5.6-5.5c1.3,0.8,2.8,1.4,4.3,1.8
						l-0.1,7.8l10.5,0.1l0.1-7.8c1.5-0.4,3-1,4.3-1.7l5.5,5.6l7.5-7.4l-5.5-5.6C523.4,425.9,524,424.4,524.5,422.9z M505.7,426.1
						c-4.7,0-8.6-3.9-8.5-8.7c0-4.7,3.9-8.6,8.7-8.5c4.7,0,8.6,3.9,8.5,8.7C514.3,422.3,510.4,426.1,505.7,426.1z"/>
				</g>
			</g>
		</g>
		<g>
			
				<image style="overflow:visible;opacity:0.16;" width="95" height="95" xlink:href="A8218A3D.png"  transform="matrix(1 0 0 1 230.002 40)">
			</image>
			<g>
				<g>
					
						<linearGradient id="SVGID_2_" gradientUnits="userSpaceOnUse" x1="235.5426" y1="86.8953" x2="316.76" y2="86.8953" gradientTransform="matrix(6.906300e-02 0.9976 -0.9976 6.906300e-02 343.7621 -194.5971)">
						<stop  offset="0" style="stop-color:#A01EB8"/>
						<stop  offset="0.2331" style="stop-color:#9C1EB8"/>
						<stop  offset="0.4762" style="stop-color:#8F1EB9"/>
						<stop  offset="0.724" style="stop-color:#7A1FBB"/>
						<stop  offset="0.9736" style="stop-color:#5D20BD"/>
						<stop  offset="0.999" style="stop-color:#5A20BD"/>
					</linearGradient>
					<path class="st1" d="M269.9,115.9l0.7,11.9l16-1l-0.7-11.9c2.3-0.8,4.4-1.8,6.4-3.1l8.9,7.9l10.6-12l-8.9-7.9
						c1-2.1,1.8-4.4,2.3-6.7l11.9-0.7l-1-16l-11.9,0.7c-0.8-2.3-1.8-4.4-3.1-6.4l7.9-8.9l-12-10.6l-7.9,8.9c-2.1-1-4.4-1.8-6.7-2.3
						l-0.7-11.9l-16,1l0.7,11.9c-2.3,0.8-4.4,1.8-6.4,3.1l-8.9-7.9l-10.6,12l8.9,7.9c-1,2.1-1.8,4.4-2.3,6.7l-11.9,0.7l1,16
						l11.9-0.7c0.8,2.3,1.8,4.4,3.1,6.4l-7.9,8.9l12,10.6l7.9-8.9C265.3,114.6,267.6,115.4,269.9,115.9z M263.1,87.7
						c-0.4-7.2,5.1-13.4,12.3-13.9c7.2-0.4,13.4,5.1,13.9,12.3c0.4,7.2-5.1,13.4-12.3,13.9C269.7,100.4,263.5,94.9,263.1,87.7z"/>
				</g>
			</g>
		</g>
		<g class="st2">
			
				<image style="overflow:visible;opacity:0.27;" width="128" height="167" xlink:href="A8218A3E.png"  transform="matrix(1 0 0 1 463.002 70)">
			</image>
			<g>
				<path class="st3" d="M570.7,77.5h-91.5c-4.9,0-8.8,4-8.8,8.8v130.8c0,4.9,4,8.8,8.8,8.8h91.5c4.9,0,8.8-4,8.8-8.8V86.4
					C579.6,81.5,575.6,77.5,570.7,77.5z"/>
			</g>
		</g>
		<g>
			<g>
				
					<image style="overflow:visible;opacity:0.27;" width="208" height="382" xlink:href="A8218A3C.png"  transform="matrix(1 0 0 1 259.002 81)">
				</image>
				<g>
					<g>
						<linearGradient id="SVGID_3_" gradientUnits="userSpaceOnUse" x1="237.3179" y1="390.5472" x2="481.9682" y2="145.8969">
							<stop  offset="0" style="stop-color:#E06CB3"/>
							<stop  offset="1" style="stop-color:#EDB971"/>
						</linearGradient>
						<path class="st4" d="M447,414.3c0,15-12.2,27.2-27.2,27.2H299.4c-15,0-27.2-12.2-27.2-27.2V122.2c0-15,12.2-27.2,27.2-27.2
							h120.4c15,0,27.2,12.2,27.2,27.2V414.3z"/>
						<linearGradient id="SVGID_4_" gradientUnits="userSpaceOnUse" x1="265.1751" y1="268.2223" x2="454.1113" y2="268.2223">
							<stop  offset="0" style="stop-color:#29004C"/>
							<stop  offset="0.3089" style="stop-color:#45008D"/>
							<stop  offset="1" style="stop-color:#29004C"/>
						</linearGradient>
						<path class="st5" d="M418.2,86.8H301.1c-19.8,0-35.9,16.1-35.9,35.9v291.1c0,19.8,16.1,35.9,35.9,35.9h117.1
							c19.8,0,35.9-16.1,35.9-35.9V122.7C454.1,102.9,438,86.8,418.2,86.8z M447,414.3c0,15-12.2,27.2-27.2,27.2H299.4
							c-15,0-27.2-12.2-27.2-27.2V122.2c0-15,12.2-27.2,27.2-27.2h120.4c15,0,27.2,12.2,27.2,27.2V414.3z"/>
						<g>
							<path class="st6" d="M379.5,107.2h-39.7c-8.2,0-14.9-6.7-14.9-14.9l0,0h69.5l0,0C394.4,100.6,387.7,107.2,379.5,107.2z"/>
							<g>
								<linearGradient id="SVGID_5_" gradientUnits="userSpaceOnUse" x1="339.5405" y1="97.926" x2="368.293" y2="97.926">
									<stop  offset="0" style="stop-color:#CED5F5"/>
									<stop  offset="1" style="stop-color:#FCF9FE"/>
								</linearGradient>
								<rect x="339.5" y="96.8" class="st7" width="28.8" height="2.3"/>
								<linearGradient id="SVGID_6_" gradientUnits="userSpaceOnUse" x1="376.4389" y1="97.9259" x2="379.7456" y2="97.9259">
									<stop  offset="0" style="stop-color:#CED5F5"/>
									<stop  offset="1" style="stop-color:#FCF9FE"/>
								</linearGradient>
								<path class="st8" d="M379.7,97.9c0,0.9-0.7,1.7-1.7,1.7c-0.9,0-1.7-0.7-1.7-1.7c0-0.9,0.7-1.7,1.7-1.7
									C379,96.3,379.7,97,379.7,97.9z"/>
							</g>
						</g>
					</g>
				</g>
			</g>
			<g>
				
					<image style="overflow:visible;opacity:0.27;" width="84" height="84" xlink:href="A8218A3B.png"  transform="matrix(1 0 0 1 279.002 141)">
				</image>
				<g>
					<linearGradient id="SVGID_7_" gradientUnits="userSpaceOnUse" x1="288.3724" y1="211.7492" x2="349.8972" y2="150.2245">
						<stop  offset="0" style="stop-color:#A01EB8"/>
						<stop  offset="0.999" style="stop-color:#5A20BD"/>
					</linearGradient>
					<path class="st9" d="M344.9,148.1h-51.4c-3.9,0-7.1,3.2-7.1,7.1v51.4c0,3.9,3.2,7.1,7.1,7.1h51.4c3.9,0,7.1-3.2,7.1-7.1v-51.4
						C352,151.3,348.8,148.1,344.9,148.1z"/>
				</g>
			</g>
			<path class="st10" d="M425.9,148.1h-51.4c-3.9,0-7.1,3.2-7.1,7.1v51.4c0,3.9,3.2,7.1,7.1,7.1h51.4c3.9,0,7.1-3.2,7.1-7.1v-51.4
				C433,151.3,429.8,148.1,425.9,148.1z"/>
			<path class="st10" d="M344.9,239.9h-51.4c-3.9,0-7.1,3.2-7.1,7.1v51.4c0,3.9,3.2,7.1,7.1,7.1h51.4c3.9,0,7.1-3.2,7.1-7.1V247
				C352,243.1,348.8,239.9,344.9,239.9z"/>
			<g>
				
					<image style="overflow:visible;opacity:0.27;" width="84" height="85" xlink:href="A8218A35.png"  transform="matrix(1 0 0 1 360.002 232)">
				</image>
				<g>
					<linearGradient id="SVGID_8_" gradientUnits="userSpaceOnUse" x1="369.3892" y1="303.5193" x2="430.9139" y2="241.9947">
						<stop  offset="0" style="stop-color:#A01EB8"/>
						<stop  offset="0.999" style="stop-color:#5A20BD"/>
					</linearGradient>
					<path class="st11" d="M425.9,239.9h-51.4c-3.9,0-7.1,3.2-7.1,7.1v51.4c0,3.9,3.2,7.1,7.1,7.1h51.4c3.9,0,7.1-3.2,7.1-7.1V247
						C433,243.1,429.8,239.9,425.9,239.9z"/>
				</g>
			</g>
			<g>
				
					<image style="overflow:visible;opacity:0.27;" width="84" height="85" xlink:href="A8218A37.png"  transform="matrix(1 0 0 1 279.002 324)">
				</image>
				<g>
					<linearGradient id="SVGID_9_" gradientUnits="userSpaceOnUse" x1="288.3725" y1="395.2896" x2="349.8971" y2="333.7649">
						<stop  offset="0" style="stop-color:#A01EB8"/>
						<stop  offset="0.999" style="stop-color:#5A20BD"/>
					</linearGradient>
					<path class="st12" d="M344.9,331.7h-51.4c-3.9,0-7.1,3.2-7.1,7.1v51.4c0,3.9,3.2,7.1,7.1,7.1h51.4c3.9,0,7.1-3.2,7.1-7.1v-51.4
						C352,334.9,348.8,331.7,344.9,331.7z"/>
				</g>
			</g>
			<path class="st10" d="M425.9,331.7h-51.4c-3.9,0-7.1,3.2-7.1,7.1v51.4c0,3.9,3.2,7.1,7.1,7.1h51.4c3.9,0,7.1-3.2,7.1-7.1v-51.4
				C433,334.9,429.8,331.7,425.9,331.7z"/>
			<polygon class="st13" points="345.3,172.8 320.4,162.1 295.6,172.8 302.2,172.8 302.2,199.9 315.8,199.9 315.8,185 325.1,185 
				325.1,199.9 338.6,199.9 338.6,172.8 			"/>
			<g>
				<rect x="379.6" y="275.7" class="st13" width="9" height="19.1"/>
				<rect x="395.4" y="263.2" class="st13" width="9" height="31.5"/>
				<rect x="411.7" y="251.6" class="st13" width="9" height="43.2"/>
			</g>
			<path class="st13" d="M334.3,349h-30.4c-3.7,0-6.6,3-6.6,6.6v15.2c0,2.8,1.7,5.2,4.2,6.2h0l3.9,7.7l4.2-7.3h24.8
				c3.7,0,6.6-3,6.6-6.6v-15.2C340.9,351.9,338,349,334.3,349z M307.3,367.5c-2.4,0-4.3-1.9-4.3-4.3c0-2.4,1.9-4.3,4.3-4.3
				c2.4,0,4.3,1.9,4.3,4.3C311.6,365.5,309.7,367.5,307.3,367.5z M319.1,367.5c-2.4,0-4.3-1.9-4.3-4.3c0-2.4,1.9-4.3,4.3-4.3
				c2.4,0,4.3,1.9,4.3,4.3C323.5,365.5,321.5,367.5,319.1,367.5z M331,367.5c-2.4,0-4.3-1.9-4.3-4.3c0-2.4,1.9-4.3,4.3-4.3
				c2.4,0,4.3,1.9,4.3,4.3C335.3,365.5,333.4,367.5,331,367.5z"/>
		</g>
		<g>
			<g>
				<linearGradient id="SVGID_10_" gradientUnits="userSpaceOnUse" x1="480.2101" y1="212.6342" x2="569.8331" y2="212.6342">
					<stop  offset="0" style="stop-color:#A01EB8"/>
					<stop  offset="0.999" style="stop-color:#5A20BD"/>
				</linearGradient>
				<rect x="480.2" y="212.3" class="st14" width="89.6" height="0.7"/>
			</g>
			<g>
				<linearGradient id="SVGID_11_" gradientUnits="userSpaceOnUse" x1="480.2101" y1="182.1975" x2="569.8331" y2="182.1975">
					<stop  offset="0" style="stop-color:#A01EB8"/>
					<stop  offset="0.999" style="stop-color:#5A20BD"/>
				</linearGradient>
				<rect x="480.2" y="181.9" class="st15" width="89.6" height="0.7"/>
			</g>
			<g>
				<linearGradient id="SVGID_12_" gradientUnits="userSpaceOnUse" x1="480.2101" y1="151.761" x2="569.8331" y2="151.761">
					<stop  offset="0" style="stop-color:#A01EB8"/>
					<stop  offset="0.999" style="stop-color:#5A20BD"/>
				</linearGradient>
				<rect x="480.2" y="151.4" class="st16" width="89.6" height="0.7"/>
			</g>
			<g>
				<linearGradient id="SVGID_13_" gradientUnits="userSpaceOnUse" x1="480.2101" y1="121.3243" x2="569.8331" y2="121.3243">
					<stop  offset="0" style="stop-color:#A01EB8"/>
					<stop  offset="0.999" style="stop-color:#5A20BD"/>
				</linearGradient>
				<rect x="480.2" y="121" class="st17" width="89.6" height="0.7"/>
			</g>
			<g>
				<linearGradient id="SVGID_14_" gradientUnits="userSpaceOnUse" x1="480.2101" y1="90.888" x2="569.8331" y2="90.888">
					<stop  offset="0" style="stop-color:#A01EB8"/>
					<stop  offset="0.999" style="stop-color:#5A20BD"/>
				</linearGradient>
				<rect x="480.2" y="90.5" class="st18" width="89.6" height="0.7"/>
			</g>
			<g>
				<g>
					<linearGradient id="SVGID_15_" gradientUnits="userSpaceOnUse" x1="496.7346" y1="212.1929" x2="496.7346" y2="90.8879">
						<stop  offset="0" style="stop-color:#CED5F5"/>
						<stop  offset="1" style="stop-color:#FCF9FE"/>
					</linearGradient>
					<rect x="493.7" y="90.9" class="st19" width="6" height="121.3"/>
				</g>
				<g>
					<linearGradient id="SVGID_16_" gradientUnits="userSpaceOnUse" x1="512.4955" y1="212.1929" x2="512.4955" y2="90.8879">
						<stop  offset="0" style="stop-color:#CED5F5"/>
						<stop  offset="1" style="stop-color:#FCF9FE"/>
					</linearGradient>
					<rect x="509.5" y="90.9" class="st20" width="6" height="121.3"/>
				</g>
				<g>
					<linearGradient id="SVGID_17_" gradientUnits="userSpaceOnUse" x1="528.2565" y1="212.1929" x2="528.2565" y2="90.8879">
						<stop  offset="0" style="stop-color:#CED5F5"/>
						<stop  offset="1" style="stop-color:#FCF9FE"/>
					</linearGradient>
					<rect x="525.3" y="90.9" class="st21" width="6" height="121.3"/>
				</g>
				<g>
					<linearGradient id="SVGID_18_" gradientUnits="userSpaceOnUse" x1="544.0172" y1="212.1929" x2="544.0172" y2="90.8879">
						<stop  offset="0" style="stop-color:#CED5F5"/>
						<stop  offset="1" style="stop-color:#FCF9FE"/>
					</linearGradient>
					<rect x="541" y="90.9" class="st22" width="6" height="121.3"/>
				</g>
				<g>
					<linearGradient id="SVGID_19_" gradientUnits="userSpaceOnUse" x1="559.7781" y1="212.1929" x2="559.7781" y2="90.8879">
						<stop  offset="0" style="stop-color:#CED5F5"/>
						<stop  offset="1" style="stop-color:#FCF9FE"/>
					</linearGradient>
					<rect x="556.8" y="90.9" class="st23" width="6" height="121.3"/>
				</g>
				<g>
					<linearGradient id="SVGID_20_" gradientUnits="userSpaceOnUse" x1="496.7346" y1="212.1929" x2="496.7346" y2="156.4985">
						<stop  offset="9.650000e-04" style="stop-color:#5A20BD"/>
						<stop  offset="1" style="stop-color:#A01EB8"/>
					</linearGradient>
					<rect x="493.7" y="156.5" class="st24" width="6" height="55.7"/>
				</g>
				<g>
					<linearGradient id="SVGID_21_" gradientUnits="userSpaceOnUse" x1="512.4955" y1="212.1929" x2="512.4955" y2="172.129">
						<stop  offset="9.650000e-04" style="stop-color:#5A20BD"/>
						<stop  offset="1" style="stop-color:#A01EB8"/>
					</linearGradient>
					<rect x="509.5" y="172.1" class="st25" width="6" height="40.1"/>
				</g>
				<g>
					<linearGradient id="SVGID_22_" gradientUnits="userSpaceOnUse" x1="528.2565" y1="212.1929" x2="528.2565" y2="127.7887">
						<stop  offset="9.650000e-04" style="stop-color:#5A20BD"/>
						<stop  offset="1" style="stop-color:#A01EB8"/>
					</linearGradient>
					<rect x="525.3" y="127.8" class="st26" width="6" height="84.4"/>
				</g>
				<g>
					<linearGradient id="SVGID_23_" gradientUnits="userSpaceOnUse" x1="544.0172" y1="212.1929" x2="544.0172" y2="143.6247">
						<stop  offset="9.650000e-04" style="stop-color:#5A20BD"/>
						<stop  offset="1" style="stop-color:#A01EB8"/>
					</linearGradient>
					<rect x="541" y="143.6" class="st27" width="6" height="68.6"/>
				</g>
				<g>
					<linearGradient id="SVGID_24_" gradientUnits="userSpaceOnUse" x1="559.7781" y1="212.1929" x2="559.7781" y2="179.646">
						<stop  offset="9.650000e-04" style="stop-color:#5A20BD"/>
						<stop  offset="1" style="stop-color:#A01EB8"/>
					</linearGradient>
					<rect x="556.8" y="179.6" class="st28" width="6" height="32.5"/>
				</g>
				<g>
					<linearGradient id="SVGID_25_" gradientUnits="userSpaceOnUse" x1="496.7346" y1="110.816" x2="496.7346" y2="90.8879">
						<stop  offset="0" style="stop-color:#E06CB3"/>
						<stop  offset="1" style="stop-color:#EDB971"/>
					</linearGradient>
					<rect x="493.7" y="90.9" class="st29" width="6" height="19.9"/>
				</g>
				<g>
					<linearGradient id="SVGID_26_" gradientUnits="userSpaceOnUse" x1="512.4955" y1="124.8426" x2="512.4955" y2="90.8879">
						<stop  offset="0" style="stop-color:#E06CB3"/>
						<stop  offset="1" style="stop-color:#EDB971"/>
					</linearGradient>
					<rect x="509.5" y="90.9" class="st30" width="6" height="34"/>
				</g>
				<g>
					<linearGradient id="SVGID_27_" gradientUnits="userSpaceOnUse" x1="528.2565" y1="106.9013" x2="528.2565" y2="90.8879">
						<stop  offset="0" style="stop-color:#E06CB3"/>
						<stop  offset="1" style="stop-color:#EDB971"/>
					</linearGradient>
					<rect x="525.3" y="90.9" class="st31" width="6" height="16"/>
				</g>
				<g>
					<linearGradient id="SVGID_28_" gradientUnits="userSpaceOnUse" x1="544.0172" y1="110.816" x2="544.0172" y2="90.8879">
						<stop  offset="0" style="stop-color:#E06CB3"/>
						<stop  offset="1" style="stop-color:#EDB971"/>
					</linearGradient>
					<rect x="541" y="90.9" class="st32" width="6" height="19.9"/>
				</g>
				<g>
					<linearGradient id="SVGID_29_" gradientUnits="userSpaceOnUse" x1="559.7781" y1="124.8426" x2="559.7781" y2="90.8879">
						<stop  offset="0" style="stop-color:#E06CB3"/>
						<stop  offset="1" style="stop-color:#EDB971"/>
					</linearGradient>
					<rect x="556.8" y="90.9" class="st33" width="6" height="34"/>
				</g>
			</g>
		</g>
		<g class="st2">
			
				<image style="overflow:visible;opacity:0.27;" width="208" height="143" xlink:href="A8218A34.png"  transform="matrix(1 0 0 1 95.002 100)">
			</image>
			<g>
				<path class="st3" d="M280.7,107.2H113.5c-6,0-10.9,4.9-10.9,10.9v102.5c0,6,4.9,10.9,10.9,10.9h167.3c6,0,10.9-4.9,10.9-10.9
					V118.1C291.7,112.1,286.8,107.2,280.7,107.2z"/>
			</g>
		</g>
		<linearGradient id="SVGID_30_" gradientUnits="userSpaceOnUse" x1="110.4426" y1="193.8516" x2="282.6946" y2="193.8516">
			<stop  offset="0" style="stop-color:#A01EB8"/>
			<stop  offset="0.999" style="stop-color:#5A20BD"/>
		</linearGradient>
		<path class="st34" d="M110.4,222.5c1.1-1.4,57.3-57.3,57.3-57.3l40.8,43l27.8-31.1l46.3,45.5H110.4z"/>
		<linearGradient id="SVGID_31_" gradientUnits="userSpaceOnUse" x1="209.0205" y1="167.3953" x2="209.0205" y2="128.8791">
			<stop  offset="0" style="stop-color:#E06CB3"/>
			<stop  offset="1" style="stop-color:#EDB971"/>
		</linearGradient>
		<circle class="st35" cx="209" cy="148.1" r="19.3"/>
		<g>
			<g class="st2">
				
					<image style="overflow:visible;opacity:0.27;" width="197" height="109" xlink:href="4CD8FA29.png"  transform="matrix(1 0 0 1 435.002 237)">
				</image>
				<g>
					<path class="st3" d="M612.1,244.4H451.6c-4.9,0-8.8,4-8.8,8.8v72.3c0,4.9,4,8.8,8.8,8.8h160.5c4.9,0,8.8-4,8.8-8.8v-72.3
						C620.9,248.4,617,244.4,612.1,244.4z"/>
				</g>
			</g>
			<g>
				<g>
					
						<image style="overflow:visible;opacity:0.27;" width="70" height="70" xlink:href="4CD8FA2F.png"  transform="matrix(1 0 0 1 499.002 249)">
					</image>
					<g>
						<g>
							<g>
								<linearGradient id="SVGID_32_" gradientUnits="userSpaceOnUse" x1="506.3277" y1="281.8142" x2="557.3772" y2="281.8142">
									<stop  offset="0" style="stop-color:#E06CB3"/>
									<stop  offset="1" style="stop-color:#EDB971"/>
								</linearGradient>
								<circle class="st36" cx="531.9" cy="281.8" r="25.5"/>
							</g>
							<polygon class="st3" points="523.4,268.9 545.8,281.8 523.4,294.7 							"/>
						</g>
					</g>
				</g>
				<g>
					<linearGradient id="SVGID_33_" gradientUnits="userSpaceOnUse" x1="458.3677" y1="318.504" x2="605.3372" y2="318.504">
						<stop  offset="0" style="stop-color:#E06CB3"/>
						<stop  offset="1" style="stop-color:#EDB971"/>
					</linearGradient>
					<path class="st37" d="M603.4,320.5H460.3c-1.1,0-2-0.9-2-2l0,0c0-1.1,0.9-2,2-2h143.1c1.1,0,2,0.9,2,2l0,0
						C605.3,319.6,604.5,320.5,603.4,320.5z"/>
					<g>
						<path class="st3" d="M491.1,318.5c0,2.5-2,4.5-4.5,4.5c-2.5,0-4.5-2-4.5-4.5c0-2.5,2-4.5,4.5-4.5
							C489.1,314,491.1,316,491.1,318.5z"/>
					</g>
				</g>
			</g>
		</g>
		<g>
			<g class="st2">
				
					<image style="overflow:visible;opacity:0.27;" width="128" height="120" xlink:href="4CD8FA28.png"  transform="matrix(1 0 0 1 115.002 251)">
				</image>
				<g>
					<path class="st3" d="M222.6,258.1h-91.5c-4.9,0-8.8,4-8.8,8.8v84c0,4.9,4,8.8,8.8,8.8h91.5c4.9,0,8.8-4,8.8-8.8v-84
						C231.4,262,227.5,258.1,222.6,258.1z"/>
				</g>
			</g>
			<g>
				
					<image style="overflow:visible;opacity:0.27;" width="86" height="85" xlink:href="4CD8FA2B.png"  transform="matrix(1 0 0 1 136.002 261)">
				</image>
				<g>
					<g>
						<g>
							<linearGradient id="SVGID_34_" gradientUnits="userSpaceOnUse" x1="143.7388" y1="284.7936" x2="176.8824" y2="284.7936">
								<stop  offset="0" style="stop-color:#E06CB3"/>
								<stop  offset="1" style="stop-color:#EDB971"/>
							</linearGradient>
							<path class="st38" d="M161.8,301.4h-18.1c0-18.3,14.9-33.1,33.1-33.1v18.1C168.6,286.3,161.8,293.1,161.8,301.4z"/>
						</g>
						<linearGradient id="SVGID_35_" gradientUnits="userSpaceOnUse" x1="172.2855" y1="317.9372" x2="210.026" y2="317.9372">
							<stop  offset="0" style="stop-color:#E06CB3"/>
							<stop  offset="1" style="stop-color:#EDB971"/>
						</linearGradient>
						<path class="st39" d="M191.9,301.4c0,8.3-6.7,15-15,15l-4.6,9.1l4.6,9.1c18.3,0,33.1-14.9,33.1-33.1H191.9z"/>
						<linearGradient id="SVGID_36_" gradientUnits="userSpaceOnUse" x1="143.7387" y1="315.6389" x2="176.8823" y2="315.6389">
							<stop  offset="0" style="stop-color:#A01EB8"/>
							<stop  offset="0.999" style="stop-color:#5A20BD"/>
						</linearGradient>
						<path class="st40" d="M161.8,301.4L161.8,301.4l-9.1-4.6l-9.1,4.6h0c0,0,0,0,0,0c0,18.3,14.9,33.1,33.1,33.1v-18.1
							C168.6,316.4,161.8,309.7,161.8,301.4z"/>
						<path class="st13" d="M210,301.4L210,301.4c0-18.3-14.9-33.1-33.1-33.1v18.1c8.3,0,15,6.7,15,15h0l0,0v0h0l9.1,4.6L210,301.4z
							"/>
					</g>
				</g>
			</g>
			<rect x="131.9" y="342.3" class="st13" width="49" height="3.3"/>
			<rect x="131.9" y="350" class="st13" width="49" height="3.3"/>
			<linearGradient id="SVGID_37_" gradientUnits="userSpaceOnUse" x1="189.4022" y1="343.9943" x2="199.5195" y2="343.9943">
				<stop  offset="0" style="stop-color:#E06CB3"/>
				<stop  offset="1" style="stop-color:#EDB971"/>
			</linearGradient>
			<rect x="189.4" y="342.3" class="st41" width="10.1" height="3.3"/>
			<rect x="204" y="342.3" class="st13" width="10.1" height="3.3"/>
			<linearGradient id="SVGID_38_" gradientUnits="userSpaceOnUse" x1="189.4022" y1="351.623" x2="199.5195" y2="351.623">
				<stop  offset="0" style="stop-color:#A01EB8"/>
				<stop  offset="0.999" style="stop-color:#5A20BD"/>
			</linearGradient>
			<rect x="189.4" y="350" class="st42" width="10.1" height="3.3"/>
			<linearGradient id="SVGID_39_" gradientUnits="userSpaceOnUse" x1="203.9944" y1="351.623" x2="214.1116" y2="351.623">
				<stop  offset="0" style="stop-color:#E06CB3"/>
				<stop  offset="1" style="stop-color:#EDB971"/>
			</linearGradient>
			<rect x="204" y="350" class="st43" width="10.1" height="3.3"/>
		</g>
		<g>
			<g>
				
					<image style="overflow:visible;opacity:0.27;" width="85" height="84" xlink:href="4CD8FA37.png"  transform="matrix(1 0 0 1 49.002 218)">
				</image>
				<g>
					<linearGradient id="SVGID_40_" gradientUnits="userSpaceOnUse" x1="58.7091" y1="288.8363" x2="120.2338" y2="227.3116">
						<stop  offset="0" style="stop-color:#E06CB3"/>
						<stop  offset="1" style="stop-color:#EDB971"/>
					</linearGradient>
					<path class="st44" d="M115.2,225.2H63.7c-3.9,0-7.1,3.2-7.1,7.1v51.4c0,3.9,3.2,7.1,7.1,7.1h51.4c3.9,0,7.1-3.2,7.1-7.1v-51.4
						C122.3,228.4,119.1,225.2,115.2,225.2z"/>
				</g>
			</g>
			<g>
				
					<image style="overflow:visible;opacity:0.65;" width="99" height="95" xlink:href="4CD8FA27.png"  transform="matrix(1 0 0 1 42.002 213.2169)">
				</image>
				<g>
					<g>
						<path class="st13" d="M95.6,243.5c-6.7-5.9-16.9-5.3-22.9,1.4c-5.9,6.7-5.3,16.9,1.4,22.9c5.9,5.2,14.6,5.3,20.7,0.6
							l13.3,11.8l3.9-4.5L98.7,264C102.7,257.4,101.5,248.8,95.6,243.5z M94.3,264.1c-4.6,5.2-12.7,5.7-17.9,1.1
							c-5.2-4.6-5.7-12.7-1.1-17.9c4.6-5.2,12.7-5.7,17.9-1.1C98.5,250.8,99,258.8,94.3,264.1z"/>
					</g>
				</g>
			</g>
		</g>
		<g>
			<g>
				
					<image style="overflow:visible;opacity:0.27;" width="85" height="84" xlink:href="4CD8FA39.png"  transform="matrix(1 0 0 1 572.002 297)">
				</image>
				<g>
					<linearGradient id="SVGID_41_" gradientUnits="userSpaceOnUse" x1="581.4388" y1="367.7656" x2="642.9635" y2="306.2409">
						<stop  offset="0" style="stop-color:#A01EB8"/>
						<stop  offset="0.999" style="stop-color:#5A20BD"/>
					</linearGradient>
					<path class="st45" d="M637.9,304.2h-51.4c-3.9,0-7.1,3.2-7.1,7.1v51.4c0,3.9,3.2,7.1,7.1,7.1h51.4c3.9,0,7.1-3.2,7.1-7.1v-51.4
						C645.1,307.3,641.9,304.2,637.9,304.2z"/>
				</g>
			</g>
			<g>
				<path class="st3" d="M622.3,327.7c0,5.4-4.5,9.8-10.1,9.8c-5.6,0-10.1-4.4-10.1-9.8c0-5.4,4.5-9.8,10.1-9.8
					C617.8,317.9,622.3,322.3,622.3,327.7z"/>
				<path class="st3" d="M596.8,355.1c0,0.4,0.1,0.7,0.1,1h30.5c0-0.3,0.1-0.7,0.1-1c0-8-6.6-14.6-14.8-14.9h-1.2
					C603.4,340.5,596.8,347.1,596.8,355.1z"/>
			</g>
		</g>
		<g>
			<g>
				
					<image style="overflow:visible;opacity:0.27;" width="84" height="85" xlink:href="4CD8FA3B.png"  transform="matrix(1 0 0 1 513.002 348)">
				</image>
				<g>
					<linearGradient id="SVGID_42_" gradientUnits="userSpaceOnUse" x1="520.2058" y1="388.3409" x2="585.9049" y2="388.3409">
						<stop  offset="0" style="stop-color:#E06CB3"/>
						<stop  offset="1" style="stop-color:#EDB971"/>
					</linearGradient>
					<path class="st46" d="M578.8,355.5h-51.4c-3.9,0-7.1,3.2-7.1,7.1v51.4c0,3.9,3.2,7.1,7.1,7.1h51.4c3.9,0,7.1-3.2,7.1-7.1v-51.4
						C585.9,358.7,582.7,355.5,578.8,355.5z"/>
				</g>
			</g>
			<g>
				<path class="st3" d="M553.1,364.8c-9.8,0-17.7,7.9-17.7,17.7c0,9.8,17.7,29.4,17.7,29.4s17.7-19.6,17.7-29.4
					C570.8,372.7,562.8,364.8,553.1,364.8z M553.1,390.9c-4.6,0-8.3-3.7-8.3-8.3c0-4.6,3.7-8.3,8.3-8.3c4.6,0,8.3,3.7,8.3,8.3
					C561.3,387.2,557.6,390.9,553.1,390.9z"/>
			</g>
		</g>
		<g>
			<g>
				
					<image style="overflow:visible;opacity:0.27;" width="86" height="81" xlink:href="4CD8FA38.png"  transform="matrix(1 0 0 1 54.002 332)">
				</image>
				<g>
					<linearGradient id="SVGID_43_" gradientUnits="userSpaceOnUse" x1="64.3643" y1="401.2318" x2="125.391" y2="340.2051">
						<stop  offset="0" style="stop-color:#A01EB8"/>
						<stop  offset="0.999" style="stop-color:#5A20BD"/>
					</linearGradient>
					<path class="st47" d="M122.7,339.8H67c-3,0-5.4,2.4-5.4,5.4v51.1c0,3,2.4,5.4,5.4,5.4h55.7c3,0,5.4-2.4,5.4-5.4v-51.1
						C128.1,342.2,125.7,339.8,122.7,339.8z"/>
				</g>
			</g>
			<g>
				<g>
					<g>
						<rect x="87.3" y="389.8" class="st13" width="15.6" height="6"/>
					</g>
					<g>
						<path class="st13" d="M106.8,374.9l-10.9-22.4c-0.1-0.2-0.4-0.1-0.4,0.1V370c1,0.3,1.7,1.3,1.5,2.4c-0.1,0.8-0.8,1.5-1.7,1.7
							c-1.3,0.2-2.5-0.8-2.5-2c0-1,0.6-1.8,1.5-2v-17.3c0-0.2-0.3-0.3-0.4-0.1L83.1,375c-0.5,1.1-0.5,2.3-0.1,3.4l4.4,9.8l7.6-0.1v0
							l7.5,0.1l4.4-9.8C107.4,377.3,107.3,376,106.8,374.9z"/>
					</g>
				</g>
				<g>
					<g>
						<g>
							<g>
								<path class="st13" d="M71.6,348.9c0,1.1-0.9,2-2,2c-1.1,0-2-0.9-2-2c0-1.1,0.9-2,2-2C70.7,346.9,71.6,347.8,71.6,348.9z"/>
							</g>
							<g>
								<path class="st13" d="M122.5,348.9c0,1.1-0.9,2-2,2c-1.1,0-2-0.9-2-2c0-1.1,0.9-2,2-2C121.6,346.9,122.5,347.8,122.5,348.9z
									"/>
							</g>
						</g>
						<g>
							<rect x="93.3" y="347.2" class="st13" width="3.3" height="3.3"/>
						</g>
						<g>
							<path class="st13" d="M120.5,349.2c-0.5,0-49.4-0.1-50.9,0l0-0.6c1.5-0.1,48.9,0,50.9,0L120.5,349.2z"/>
						</g>
					</g>
					<g>
						<g>
							<path class="st13" d="M115.5,364.3c-2.8-9-11.1-15.1-20.6-15.1c-9.5,0-17.7,6.1-20.6,15.1l-0.5-0.2
								c2.9-9.3,11.4-15.5,21.1-15.5s18.2,6.2,21.1,15.5L115.5,364.3z"/>
						</g>
					</g>
					<g>
						<rect x="113.6" y="362.4" class="st13" width="3.3" height="3.3"/>
					</g>
					<g>
						<rect x="72.7" y="362.4" class="st13" width="3.3" height="3.3"/>
					</g>
				</g>
			</g>
		</g>
		<g>
			<polyline class="st48" points="122.3,245.6 248.7,245.6 248.7,273.6 321.9,273.6 			"/>
			<circle class="st3" cx="320.7" cy="273.8" r="3.8"/>
			<circle class="st3" cx="125.6" cy="246" r="3.8"/>
		</g>
		<g>
			<path class="st3" d="M404.5,180.3c0,2.1-1.7,3.8-3.8,3.8c-2.1,0-3.8-1.7-3.8-3.8c0-2.1,1.7-3.8,3.8-3.8
				C402.7,176.5,404.5,178.2,404.5,180.3z"/>
			<path class="st3" d="M654,339.6c0,2.1-1.7,3.8-3.8,3.8c-2.1,0-3.8-1.7-3.8-3.8s1.7-3.8,3.8-3.8C652.3,335.8,654,337.5,654,339.6z
				"/>
			<polyline class="st48" points="400.6,180.3 400.6,233.7 683.3,233.7 683.3,340.2 649.9,340.2 			"/>
		</g>
		<g>
			
				<image style="overflow:visible;opacity:0.27;" width="121" height="116" xlink:href="4CD8FA3F.png"  transform="matrix(1 0 0 1 584.002 157)">
			</image>
			<g>
				<g>
					<linearGradient id="SVGID_44_" gradientUnits="userSpaceOnUse" x1="591.6817" y1="188.9329" x2="693.3779" y2="188.9329">
						<stop  offset="0" style="stop-color:#CED5F5"/>
						<stop  offset="1" style="stop-color:#FCF9FE"/>
					</linearGradient>
					<path class="st49" d="M677.7,181.7c-3.4,0-6.5,1.1-9.1,2.9c0-0.3,0.1-0.7,0.1-1c0-8.7-7-15.7-15.7-15.7
						c-5.8,0-10.9,3.2-13.6,7.9c-2-6.4-8-11-15-11c-8.7,0-15.7,7-15.7,15.7c0,0.4,0,0.8,0.1,1.3c-0.4,0-0.8-0.1-1.2-0.1
						c-8.7,0-15.7,7-15.7,15.7s7,15.7,15.7,15.7h70.2c8.7,0,15.7-7,15.7-15.7S686.3,181.7,677.7,181.7z"/>
					<linearGradient id="SVGID_45_" gradientUnits="userSpaceOnUse" x1="642.6777" y1="261.1168" x2="642.6777" y2="213.1193">
						<stop  offset="0" style="stop-color:#E06CB3"/>
						<stop  offset="1" style="stop-color:#EDB971"/>
					</linearGradient>
					<polygon class="st50" points="634.8,213.1 626,237.5 640.1,237.5 633.1,261.1 659.3,232 645.2,232 655.5,213.1 					"/>
				</g>
			</g>
		</g>
		<g>
			<circle class="st3" cx="399.6" cy="364.2" r="3.8"/>
			<path class="st3" d="M511.9,373.9c1.2-1.7,3.6-2.1,5.3-0.9c1.7,1.2,2.1,3.6,0.9,5.3c-1.2,1.7-3.6,2.1-5.3,0.9
				C511.1,378,510.7,375.6,511.9,373.9z"/>
			<polyline class="st48" points="399.6,364.2 489.3,364.2 489.3,376 515.3,376 			"/>
		</g>
		<g>
			<g>
				<g>
					
						<image style="overflow:visible;opacity:0.27;" width="99" height="59" xlink:href="4CD8FA5C.png"  transform="matrix(1 0 0 1 158.002 369)">
					</image>
					<g>
						<linearGradient id="SVGID_46_" gradientUnits="userSpaceOnUse" x1="165.6293" y1="396.5398" x2="245.1788" y2="396.5398">
							<stop  offset="0" style="stop-color:#E06CB3"/>
							<stop  offset="1" style="stop-color:#EDB971"/>
						</linearGradient>
						<path class="st51" d="M241.2,376.5h-71.7c-2.2,0-3.9,1.8-3.9,3.9v32.3c0,2.2,1.8,3.9,3.9,3.9h71.7c2.2,0,3.9-1.8,3.9-3.9
							v-32.3C245.2,378.2,243.4,376.5,241.2,376.5z"/>
					</g>
				</g>
			</g>
			<g>
				<g>
					<path class="st52" d="M193.5,408.4c-0.4,0-0.7-0.1-1.1-0.4l-11.9-10.5c-0.3-0.3-0.5-0.7-0.5-1.2c0-0.5,0.2-0.9,0.5-1.2
						l11.9-10.5c0.7-0.6,1.7-0.5,2.3,0.1c0.6,0.7,0.5,1.7-0.1,2.3l-10.6,9.3l10.6,9.3c0.7,0.6,0.7,1.6,0.1,2.3
						C194.3,408.2,193.9,408.4,193.5,408.4z"/>
				</g>
				<g>
					<path class="st52" d="M217.4,408.4c-0.4,0-0.9-0.2-1.2-0.5c-0.6-0.7-0.5-1.7,0.1-2.3l10.6-9.3l-10.6-9.3
						c-0.7-0.6-0.7-1.6-0.1-2.3c0.6-0.7,1.6-0.7,2.3-0.1l11.9,10.5c0.3,0.3,0.5,0.7,0.5,1.2c0,0.5-0.2,0.9-0.5,1.2L218.4,408
						C218.1,408.2,217.7,408.4,217.4,408.4z"/>
				</g>
				<g>
					<path class="st52" d="M201.9,412.3c-0.1,0-0.3,0-0.4-0.1c-0.9-0.2-1.4-1.1-1.1-2l7.5-28.3c0.2-0.9,1.1-1.4,2-1.1
						c0.9,0.2,1.4,1.1,1.1,2l-7.5,28.3C203.2,411.8,202.6,412.3,201.9,412.3z"/>
				</g>
			</g>
		</g>
	</g>
</g>
</svg>
