<?xml version="1.0" encoding="utf-8"?>
<!-- Generator: Adobe Illustrator 25.3.0, SVG Export Plug-In . SVG Version: 6.00 Build 0)  -->
<svg version="1.1" id="Layer_1" xmlns="http://www.w3.org/2000/svg" xmlns:xlink="http://www.w3.org/1999/xlink" x="0px" y="0px"
	 viewBox="0 0 406 225" style="enable-background:new 0 0 406 225;" xml:space="preserve">
<style type="text/css">
	.st0{fill:none;stroke:#13C4E5;stroke-width:0.7559;}
	.st1{fill:#13C4E5;}
	.st2{fill-rule:evenodd;clip-rule:evenodd;}
	.st3{fill-rule:evenodd;clip-rule:evenodd;fill:url(#SVGID_1_);}
	.st4{fill-rule:evenodd;clip-rule:evenodd;fill:url(#SVGID_2_);}
	.st5{fill-rule:evenodd;clip-rule:evenodd;fill:url(#SVGID_3_);}
	.st6{fill-rule:evenodd;clip-rule:evenodd;fill:url(#SVGID_4_);}
	.st7{fill-rule:evenodd;clip-rule:evenodd;fill:url(#SVGID_5_);}
	.st8{fill-rule:evenodd;clip-rule:evenodd;fill:url(#SVGID_6_);}
	.st9{fill-rule:evenodd;clip-rule:evenodd;fill:url(#SVGID_7_);}
	.st10{fill-rule:evenodd;clip-rule:evenodd;fill:url(#SVGID_8_);}
	.st11{fill-rule:evenodd;clip-rule:evenodd;fill:url(#SVGID_9_);}
	.st12{fill-rule:evenodd;clip-rule:evenodd;fill:url(#SVGID_10_);}
	.st13{fill-rule:evenodd;clip-rule:evenodd;fill:url(#SVGID_11_);}
	.st14{fill-rule:evenodd;clip-rule:evenodd;fill:url(#SVGID_12_);}
	.st15{fill-rule:evenodd;clip-rule:evenodd;fill:url(#SVGID_13_);}
	.st16{fill-rule:evenodd;clip-rule:evenodd;fill:url(#SVGID_14_);}
	.st17{font-family:'BatmanForeverAlternate';}
	.st18{font-size:24px;}
	.st19{fill:none;}
</style>
<g>
	<g>
		<path class="st0" d="M13.6,100.2l-1.4-28.6"/>
		<g>
			<path class="st1" d="M56,146.1c3.3,0,5.9-2.7,5.9-5.9c0-3.3-2.6-5.9-5.9-5.9s-5.9,2.7-5.9,5.9C50.1,143.5,52.8,146.1,56,146.1z"
				/>
			<path class="st1" d="M14,115.1c4.1,0,7.4-3.3,7.4-7.4s-3.3-7.4-7.4-7.4s-7.4,3.3-7.4,7.4C6.6,111.8,9.9,115.1,14,115.1z"/>
			<path class="st1" d="M10.2,71.9c5.4,0,9.8-4.4,9.8-9.9s-4.4-9.9-9.8-9.9S0.4,56.5,0.4,62S4.8,71.9,10.2,71.9z"/>
			<path class="st1" d="M93.6,54.1c6.1,0,11.1-5,11.1-11.2s-5-11.2-11.1-11.2s-11.1,5-11.1,11.2S87.5,54.1,93.6,54.1z"/>
			<path class="st1" d="M169.4,71.1c5.7,0,10.4-4.7,10.4-10.5s-4.7-10.5-10.4-10.5S159,54.8,159,60.6S163.6,71.1,169.4,71.1z"/>
			<path class="st1" d="M104.5,106.1c5.7,0,10.4-4.7,10.4-10.5s-4.7-10.5-10.4-10.5c-5.7,0-10.4,4.7-10.4,10.5
				S98.7,106.1,104.5,106.1z"/>
			<path class="st1" d="M57.9,95.8c4.1,0,7.4-3.3,7.4-7.4S62,81,57.9,81s-7.4,3.3-7.4,7.4C50.6,92.5,53.9,95.8,57.9,95.8z"/>
			<path class="st1" d="M46.4,42c3.5,0,6.3-2.8,6.3-6.3s-2.8-6.3-6.3-6.3s-6.3,2.8-6.3,6.3S42.9,42,46.4,42z"/>
			<path class="st1" d="M123.4,28.9c3.9,0,7-3.1,7-7s-3.1-7-7-7s-7,3.1-7,7C116.4,25.8,119.5,28.9,123.4,28.9z"/>
			<path class="st1" d="M159.9,23c3.8,0,6.8-3.1,6.8-6.9s-3.1-6.9-6.8-6.9c-3.8,0-6.8,3.1-6.8,6.9S156.1,23,159.9,23z"/>
			<path class="st1" d="M78.3,10.6c2.8,0,5-2.3,5-5c0-2.8-2.2-5-5-5s-5,2.3-5,5S75.5,10.6,78.3,10.6z"/>
			<path class="st1" d="M122,78.1c3.7,0,6.7-3,6.7-6.7s-3-6.7-6.7-6.7s-6.7,3-6.7,6.7C115.4,75.1,118.4,78.1,122,78.1z"/>
			<path class="st1" d="M34,50.5c2,0,3.7-1.7,3.7-3.7s-1.6-3.7-3.7-3.7c-2,0-3.7,1.7-3.7,3.7S31.9,50.5,34,50.5z"/>
			<path class="st1" d="M34.7,79.4c2,0,3.7-1.7,3.7-3.7S36.8,72,34.7,72S31,73.6,31,75.7C31,77.7,32.6,79.4,34.7,79.4z"/>
			<path class="st1" d="M49.9,112.1c2,0,3.7-1.7,3.7-3.7s-1.6-3.7-3.7-3.7s-3.7,1.7-3.7,3.7C46.2,110.5,47.8,112.1,49.9,112.1z"/>
			<path class="st1" d="M80.8,81.9c2,0,3.7-1.7,3.7-3.7s-1.6-3.7-3.7-3.7c-2,0-3.7,1.7-3.7,3.7C77.1,80.3,78.7,81.9,80.8,81.9z"/>
			<path class="st1" d="M146.8,40.9c2,0,3.7-1.7,3.7-3.7s-1.6-3.7-3.7-3.7c-2,0-3.7,1.7-3.7,3.7S144.7,40.9,146.8,40.9z"/>
			<path class="st1" d="M59.2,29c2,0,3.7-1.7,3.7-3.7s-1.6-3.7-3.7-3.7c-2,0-3.7,1.7-3.7,3.7S57.2,29,59.2,29z"/>
			<path class="st0" d="M17.9,56.8l13.8-8.7"/>
			<path class="st0" d="M19.7,106.6l34.6-15.8"/>
			<path class="st0" d="M82.1,6.5l35.7,13"/>
			<path class="st0" d="M49.8,37l37.7,4.8"/>
			<path class="st0" d="M47.7,41.4L55,83.3"/>
			<path class="st0" d="M61.5,22.7l13-14.3"/>
			<path class="st0" d="M37.2,77l14.7,8.7"/>
			<path class="st0" d="M82.7,79.9l13.4,10.6"/>
			<path class="st0" d="M119,74.9L108,88"/>
			<path class="st0" d="M146.4,38.7l-21,29.2"/>
			<path class="st0" d="M162.7,62.9l-35.2,6.9"/>
			<path class="st0" d="M80.5,8.5l9.1,24.7"/>
			<path class="st0" d="M117.6,24.6l-15.7,13"/>
			<path class="st0" d="M156.3,16.9l-27.8,4.4"/>
			<path class="st0" d="M88.9,51L61.2,83"/>
			<path class="st0" d="M18.4,111.7l33.3,26.1"/>
			<path class="st0" d="M51.1,111.2l3.9,23.9"/>
			<path class="st0" d="M95.7,52.6l5.2,33.7"/>
			<path class="st0" d="M122.4,25l-0.2,40.6"/>
			<path class="st2" d="M58.6,121.8c27.6,15.7,37.7,57.5-0.2,75.7h70.9l-0.6-0.3c-15.7-4.6-27.1-19.2-27.1-36.5
				c0-16.9,10.9-31.1,25.9-36.1c-8.2-5.2-17.2-2-26,5.8c-2.4,2.1-4.3,3.9-7.3-0.8c-4.2-6.6-2.2-24.9-14-34.5
				c4.4,14.5,6.2,29.9,6.7,45.6C78.1,128,68.8,120.4,58.6,121.8z"/>
			<path d="M162.2,184.6h-2.9l-4.6-6.4c-1.1,1-2.3,2-3.6,2.8c-1.2,0.9-2.6,1.7-3.9,2.3c-1.4,0.7-2.8,1.2-4.3,1.5
				c-1.5,0.4-2.9,0.6-4.4,0.6c-3.2,0-6.3-0.6-9.2-1.9c-2.9-1.2-5.4-2.9-7.5-5.2c-2.1-2.2-3.8-4.8-5.1-7.8c-1.2-3-1.9-6.3-1.9-9.8
				s0.6-6.8,1.9-9.8s2.9-5.6,5.1-7.9c2.1-2.2,4.7-3.9,7.5-5.2c2.9-1.2,5.9-1.9,9.2-1.9c1.1,0,2.1,0.1,3.2,0.3
				c1.1,0.2,2.2,0.5,3.2,0.9c1.1,0.4,2.1,0.9,3,1.5s1.7,1.4,2.3,2.3v-21.8h11.9v65.5L162.2,184.6L162.2,184.6z M150.3,160.8
				c0-1.6-0.3-3.2-0.9-4.7c-0.6-1.5-1.4-2.9-2.5-4.1c-1.1-1.2-2.3-2.1-3.8-2.8c-1.4-0.7-2.9-1.1-4.6-1.1c-1.6,0-3.1,0.3-4.6,0.9
				c-1.4,0.6-2.6,1.4-3.7,2.5c-1.1,1.1-1.9,2.4-2.5,4c-0.6,1.6-0.9,3.4-0.9,5.3c0,1.7,0.3,3.3,0.9,4.9c0.6,1.5,1.4,2.9,2.5,4.1
				c1.1,1.2,2.3,2.1,3.7,2.8s2.9,1,4.6,1c1.6,0,3.1-0.4,4.6-1.1c1.4-0.7,2.7-1.7,3.8-2.8c1.1-1.2,1.9-2.5,2.5-4.1
				C150,164,150.3,162.4,150.3,160.8z M183,184.6h-11.8v-46.7h2.9l3.9,5.5c1.9-1.8,4.1-3.1,6.5-4s4.9-1.4,7.5-1.4h10.4v11.9H192
				c-1.2,0-2.4,0.2-3.5,0.7c-1.1,0.4-2,1.1-2.9,1.9c-0.8,0.8-1.4,1.8-1.9,2.9c-0.4,1.1-0.7,2.3-0.7,3.5L183,184.6L183,184.6z
				 M225.5,173.1c0.5,0.1,0.9,0.2,1.4,0.3s0.9,0.1,1.4,0.1c1.1,0,2.3-0.2,3.3-0.5c1.1-0.3,2.1-0.8,3-1.4c0.9-0.6,1.8-1.3,2.5-2.2
				s1.3-1.8,1.8-2.9l8.7,8.8c-1.1,1.6-2.4,3-3.8,4.2c-1.4,1.3-3,2.3-4.6,3.2s-3.4,1.5-5.2,2c-1.8,0.4-3.7,0.7-5.7,0.7
				c-3.2,0-6.3-0.6-9.2-1.8s-5.4-2.9-7.5-5.1c-2.1-2.2-3.9-4.8-5.1-7.8c-1.2-3-1.9-6.3-1.9-9.9c0-3.7,0.6-7.1,1.9-10.1
				c1.2-3.1,2.9-5.7,5.1-7.8c2.1-2.1,4.6-3.8,7.5-5s5.9-1.8,9.2-1.8c1.9,0,3.8,0.2,5.7,0.7c1.8,0.4,3.6,1.1,5.2,2
				c1.7,0.9,3.2,2,4.7,3.2c1.5,1.3,2.7,2.7,3.8,4.3L225.5,173.1z M231.5,148.6c-0.6-0.2-1.1-0.3-1.6-0.4c-0.5-0.1-1.1-0.1-1.7-0.1
				c-1.6,0-3.1,0.3-4.6,0.9c-1.4,0.6-2.6,1.5-3.7,2.6c-1,1.1-1.9,2.4-2.5,4s-0.9,3.3-0.9,5.3c0,0.4,0,0.9,0.1,1.5
				c0.1,0.5,0.1,1.1,0.2,1.7c0.1,0.6,0.2,1.1,0.4,1.7c0.1,0.5,0.4,1,0.6,1.4L231.5,148.6z M298,184.6h-2.9l-4.6-6.4
				c-1.1,1-2.3,2-3.6,2.8c-1.3,0.9-2.6,1.7-4,2.3c-1.4,0.7-2.8,1.2-4.2,1.5c-1.5,0.4-2.9,0.6-4.4,0.6c-3.3,0-6.3-0.6-9.2-1.7
				c-2.9-1.1-5.4-2.7-7.5-4.8c-2.2-2.1-3.9-4.7-5.1-7.7c-1.2-3.1-1.9-6.5-1.9-10.4c0-3.6,0.6-7,1.9-10c1.2-3,2.9-5.6,5.1-7.8
				c2.1-2.2,4.6-3.9,7.5-5.1c2.9-1.2,5.9-1.8,9.2-1.8c1.5,0,3,0.2,4.4,0.6c1.5,0.4,2.9,0.9,4.3,1.6c1.4,0.7,2.7,1.5,3.9,2.4
				c1.3,0.9,2.4,1.9,3.5,2.9l4.6-5.5h2.9v46.5L298,184.6L298,184.6z M286.2,160.8c0-1.6-0.3-3.2-0.9-4.7s-1.5-2.9-2.5-4.1
				c-1.1-1.2-2.3-2.1-3.7-2.8c-1.4-0.7-2.9-1.1-4.6-1.1s-3.1,0.3-4.6,0.8c-1.4,0.6-2.7,1.4-3.7,2.4c-1,1.1-1.9,2.4-2.5,4
				s-0.9,3.4-0.9,5.4s0.3,3.9,0.9,5.4c0.6,1.6,1.4,2.9,2.5,4s2.3,1.9,3.7,2.5c1.4,0.5,2.9,0.8,4.6,0.8s3.1-0.4,4.6-1.1
				c1.4-0.7,2.7-1.7,3.7-2.8c1.1-1.2,1.9-2.5,2.5-4.1C285.8,164,286.2,162.4,286.2,160.8z M366,184.6h-11.8v-29.7
				c0-0.8-0.1-1.6-0.4-2.3s-0.7-1.4-1.3-1.9c-0.6-0.6-1.2-1-1.9-1.3c-0.7-0.3-1.5-0.4-2.3-0.4s-1.6,0.1-2.3,0.4
				c-0.7,0.3-1.3,0.7-1.9,1.3c-0.5,0.5-1,1.2-1.3,1.9s-0.5,1.5-0.5,2.3v29.7h-11.8v-29.7c0-0.8-0.1-1.6-0.4-2.3s-0.7-1.4-1.3-1.9
				c-0.5-0.6-1.2-1-1.9-1.3c-0.7-0.3-1.5-0.4-2.3-0.4s-1.6,0.1-2.3,0.4c-0.7,0.3-1.3,0.7-1.9,1.3c-0.5,0.5-0.9,1.2-1.3,1.9
				c-0.3,0.7-0.4,1.5-0.4,2.3v29.7h-11.8v-46.7h2.9l3.2,3.6c1.6-1.4,3.4-2.5,5.4-3.3s4-1.1,6.2-1.1c2.1,0,4.3,0.4,6.3,1.2
				c2.1,0.8,3.9,2.2,5.4,4.2c0.7-1,1.5-1.8,2.4-2.5s1.9-1.3,2.9-1.7s2.1-0.8,3.2-0.9c1.1-0.2,2.1-0.3,3.2-0.3c2.4,0,4.8,0.4,6.9,1.4
				c2.2,0.9,4,2.2,5.6,3.8s2.9,3.5,3.8,5.7s1.4,4.5,1.4,7v29.6H366z"/>
			
				<linearGradient id="SVGID_1_" gradientUnits="userSpaceOnUse" x1="372.0856" y1="727.8086" x2="371.8526" y2="729.6896" gradientTransform="matrix(1 0 0 1 0 -574)">
				<stop  offset="0" style="stop-color:#1864AB"/>
				<stop  offset="0.3216" style="stop-color:#2186C5"/>
				<stop  offset="1" style="stop-color:#2BA8E0"/>
			</linearGradient>
			<path class="st3" d="M371.9,153.7c0.1,0.5,0.1,1.1,0.2,1.6l-0.2,0.5v-1.1C371.9,154.4,371.9,154,371.9,153.7z"/>
			
				<linearGradient id="SVGID_2_" gradientUnits="userSpaceOnUse" x1="328.3965" y1="684.717" x2="374.3646" y2="721.3401" gradientTransform="matrix(1 0 0 1 0 -574)">
				<stop  offset="0" style="stop-color:#EF8D58"/>
				<stop  offset="0.3294" style="stop-color:#E8495F"/>
				<stop  offset="1" style="stop-color:#E00467"/>
			</linearGradient>
			<path class="st4" d="M319.7,122.4c0.1-0.2,0.2-0.4,0.3-0.5c4-15.3,23-4.8,31,0c16.1,9.7,25.7,22.2,21,40.9v1.5
				c7.8-15.6,4.7-42.3-27.9-57.1c-12-5.5-21.1-4.8-22.1,7.8C319.4,117.7,318.7,120.2,319.7,122.4z"/>
			
				<linearGradient id="SVGID_3_" gradientUnits="userSpaceOnUse" x1="319.9" y1="712.1674" x2="373.0998" y2="712.1674" gradientTransform="matrix(1 0 0 1 0 -574)">
				<stop  offset="0" style="stop-color:#D55752"/>
				<stop  offset="1" style="stop-color:#991A3C"/>
			</linearGradient>
			<path class="st5" d="M319.9,121.8c2.4-4.4,7-4.4,9.2-0.7c2.6,4.1,4.6,8.2,7.3,10c0.6,0.4,1.3,0.8,1.9,1.2
				c0.2-0.1,0.4-0.2,0.6-0.3c1.5-0.6,3-1.1,4.6-1.4c1.4-0.2,2.9-0.4,4.3-0.4c3.3,0,6.4,0.6,9.4,1.9c2.9,1.2,5.4,3,7.6,5.2
				s3.9,4.8,5.1,7.7c1.1,2.7,1.8,5.6,1.9,8.5c0.3,2,0.4,4.4,0,7v2c4.7-18.7-4.9-31.2-21-40.9C342.9,117,323.9,106.6,319.9,121.8z"/>
			
				<linearGradient id="SVGID_4_" gradientUnits="userSpaceOnUse" x1="358.4405" y1="696" x2="376.9811" y2="696" gradientTransform="matrix(1 0 0 1 0 -574)">
				<stop  offset="0" style="stop-color:#4D246A"/>
				<stop  offset="1" style="stop-color:#953992"/>
			</linearGradient>
			<path class="st6" d="M372.4,115.5c3.6,6.1,4.6,13,4.6,19.5c-4.7-8.8-11.1-16.7-18.5-23.6c0.4-0.8,0.7-1.6,1.1-2.4
				C364.1,110.8,368.4,113,372.4,115.5z"/>
			
				<linearGradient id="SVGID_5_" gradientUnits="userSpaceOnUse" x1="360.3535" y1="684.2847" x2="401.1535" y2="684.2847" gradientTransform="matrix(1 0 0 1 0 -574)">
				<stop  offset="0" style="stop-color:#C12A65"/>
				<stop  offset="1" style="stop-color:#E1437E"/>
			</linearGradient>
			<path class="st7" d="M385,103.1c7.8,4.3,12.5,9.6,16.1,15.3c-13.1-5.3-26.3-10.4-40.8-11c0.8-1.6,1.6-3.2,2.4-4.8
				C369.8,101.8,377.5,102.2,385,103.1z"/>
			
				<linearGradient id="SVGID_6_" gradientUnits="userSpaceOnUse" x1="351.0225" y1="698.2721" x2="354.7355" y2="704.3751" gradientTransform="matrix(1 0 0 1 0 -574)">
				<stop  offset="0" style="stop-color:#12498E"/>
				<stop  offset="0.4" style="stop-color:#1A75A6"/>
				<stop  offset="1" style="stop-color:#22A1BE"/>
			</linearGradient>
			<path class="st8" d="M350.3,127.2c0.6,1.1,1.3,2.3,1.8,3.6c1.1,0.2,2.2,0.5,3.3,0.8c0.1-1.8,0-3.5-0.3-5.3
				c-0.6-1.2-1.4-2.3-2.3-3.3C352,124.6,351.2,125.9,350.3,127.2z"/>
			
				<linearGradient id="SVGID_7_" gradientUnits="userSpaceOnUse" x1="355.0281" y1="693.1545" x2="360.4471" y2="706.3925" gradientTransform="matrix(1 0 0 1 0 -574)">
				<stop  offset="0" style="stop-color:#12498E"/>
				<stop  offset="0.3608" style="stop-color:#1364A8"/>
				<stop  offset="1" style="stop-color:#157FC2"/>
			</linearGradient>
			<path class="st9" d="M360.3,122.8c1.2,3.9,1.3,7.7,1,11.6c-0.8-0.5-1.6-1-2.5-1.5c-1.6-3.5-3.7-6.9-6-9.9
				c0.9-1.7,1.8-3.5,2.8-5.5c1.7,1.5,3.2,3.1,4.6,5C360.2,122.7,360.2,122.8,360.3,122.8z"/>
			
				<linearGradient id="SVGID_8_" gradientUnits="userSpaceOnUse" x1="356.2102" y1="690.8757" x2="370.4432" y2="703.4238" gradientTransform="matrix(1 0 0 1 0 -574)">
				<stop  offset="0" style="stop-color:#53449B"/>
				<stop  offset="1" style="stop-color:#78459B"/>
			</linearGradient>
			<path class="st10" d="M367.3,121.1c1.9,4.2,2.3,9.6,2.5,15.1c-3.9-6.6-8.8-13.1-14.3-18.6c0.9-2,1.9-4,2.9-6.1
				c2.9,2.4,5.7,5.2,8.1,8.3C366.8,120.2,367.1,120.7,367.3,121.1z"/>
			
				<linearGradient id="SVGID_9_" gradientUnits="userSpaceOnUse" x1="359.5585" y1="691.95" x2="389.9585" y2="691.95" gradientTransform="matrix(1 0 0 1 0 -574)">
				<stop  offset="0" style="stop-color:#5F2874"/>
				<stop  offset="1" style="stop-color:#B3509E"/>
			</linearGradient>
			<path class="st11" d="M378.7,110.4c6.5,5.6,9.8,11.8,11.3,18.2c-8.5-7.7-18.4-14.5-30.4-19.5c0.3-0.6,0.6-1.2,0.9-1.8
				C366.8,107.5,372.9,108.6,378.7,110.4z"/>
			
				<linearGradient id="SVGID_10_" gradientUnits="userSpaceOnUse" x1="362.8" y1="675.15" x2="405.6" y2="675.15" gradientTransform="matrix(1 0 0 1 0 -574)">
				<stop  offset="0" style="stop-color:#BA1F5A"/>
				<stop  offset="1" style="stop-color:#ED6DA9"/>
			</linearGradient>
			<path class="st12" d="M388.1,94.9c9.1,3.7,13.6,8,17.5,12.5c-7.6-3.4-27.9-5.9-42.8-4.7c0.8-1.5,1.6-2.9,2.4-4.4l0.1-0.2
				c4.4-1.1,8.7-2,13.2-2.6C381.7,95.2,385,95,388.1,94.9z"/>
			
				<linearGradient id="SVGID_11_" gradientUnits="userSpaceOnUse" x1="365.4" y1="666.9" x2="401.6" y2="666.9" gradientTransform="matrix(1 0 0 1 0 -574)">
				<stop  offset="0" style="stop-color:#D41F6F"/>
				<stop  offset="0.3608" style="stop-color:#E66960"/>
				<stop  offset="1" style="stop-color:#F8B350"/>
			</linearGradient>
			<path class="st13" d="M385.3,87.7c8.1,2,12.9,4.8,16.3,8c-12.3-1.5-24.4-0.7-36.2,2.4c0.2-0.3,0.4-0.6,0.5-0.9
				c1.5-1.9,3.6-3.9,7.1-5.6C376.2,90.1,380.5,89.1,385.3,87.7z"/>
			
				<linearGradient id="SVGID_12_" gradientUnits="userSpaceOnUse" x1="365.9" y1="663.1968" x2="402.9" y2="663.1968" gradientTransform="matrix(1 0 0 1 0 -574)">
				<stop  offset="0" style="stop-color:#E15664"/>
				<stop  offset="1" style="stop-color:#FECB4A"/>
			</linearGradient>
			<path class="st14" d="M378.5,83.2c8-3.2,16.1-2.6,24.4,2c-13.4,0.3-30,5.3-37,12C369.2,91.9,373.3,87,378.5,83.2z"/>
			
				<linearGradient id="SVGID_13_" gradientUnits="userSpaceOnUse" x1="330.0366" y1="680.5009" x2="393.2436" y2="672.785" gradientTransform="matrix(1 0 0 1 0 -574)">
				<stop  offset="0" style="stop-color:#1B4597"/>
				<stop  offset="0.3294" style="stop-color:#5C4899"/>
				<stop  offset="1" style="stop-color:#9D4B9C"/>
			</linearGradient>
			<path class="st15" d="M329.1,121.2c19.5,10.4,21.6-43.9,65-44.6c-0.4,0.1-0.7,0.1-1,0.2c-38.4,3.8-39.1,57-60.1,50.7
				C331.8,126.1,329.2,121.7,329.1,121.2z"/>
			
				<linearGradient id="SVGID_14_" gradientUnits="userSpaceOnUse" x1="333" y1="678.7" x2="393.1" y2="678.7" gradientTransform="matrix(1 0 0 1 0 -574)">
				<stop  offset="0" style="stop-color:#263371"/>
				<stop  offset="0.451" style="stop-color:#613F86"/>
				<stop  offset="1" style="stop-color:#9D4B9C"/>
			</linearGradient>
			<path class="st16" d="M333,127.5c20.9,6.3,21.6-46.9,60.1-50.7c-13.1,2.7-22,11.5-27.9,21.5c-7.3,12.3-11.3,25.8-17.5,32.1
				c-1.4,0-2.8,0.1-4.2,0.4c-1.6,0.3-3.1,0.7-4.6,1.4c-0.3,0.1-0.5,0.2-0.8,0.4C336.2,131.4,334.4,129.5,333,127.5z"/>
		</g>
	</g>
	<text transform="matrix(1.1451 0 0 1 40.5984 220.2843)" class="st17 st18">IT</text>
	<text transform="matrix(1.1451 0 0 1 71.4016 220.2843)" class="st1 st17 st18"> Infotech Pvt Ltd</text>
	<line class="st19" x1="327.9" y1="197.5" x2="106.9" y2="197.5"/>
	<polygon class="st19" points="54.1,212.3 56.7,212.3 56.7,212.3 	"/>
</g>
</svg>
